<?xml version="1.0" encoding="UTF-8"?>
<svg id="Layer_1" xmlns="http://www.w3.org/2000/svg" version="1.1" xmlns:xlink="http://www.w3.org/1999/xlink" viewBox="0 0 64 64">
  <!-- Generator: Adobe Illustrator 29.5.1, SVG Export Plug-In . SVG Version: 2.1.0 Build 141)  -->
  <defs>
    <style>
      .st0 {
        fill: #bf8e33;
      }

      .st0, .st1 {
        stroke: #bf8e37;
        stroke-miterlimit: 10;
      }

      .st2 {
        stroke: #aeb4bb;
      }

      .st2, .st3, .st4 {
        fill: none;
      }

      .st2, .st4 {
        stroke-linecap: round;
        stroke-linejoin: round;
        stroke-width: 1.5px;
      }

      .st5 {
        fill: #c5c9cc;
      }

      .st1 {
        fill: #fff;
        stroke-width: 1.2px;
      }

      .st6 {
        fill: #adb4ba;
      }

      .st7 {
        fill: #231f20;
      }

      .st4 {
        stroke: #231f20;
      }

      .st8 {
        display: none;
      }

      .st9 {
        fill: url(#linear-gradient);
      }

      .st10 {
        clip-path: url(#clippath);
      }
    </style>
    <linearGradient id="linear-gradient" x1="31.9" y1="63.8" x2="31.9" y2="-.2" gradientUnits="userSpaceOnUse">
      <stop offset="0" stop-color="#efaa56"/>
      <stop offset="0" stop-color="#eeb15b"/>
      <stop offset=".3" stop-color="#eeb55e"/>
      <stop offset=".7" stop-color="#f2bf65"/>
      <stop offset=".9" stop-color="#f2c96b"/>
      <stop offset="1" stop-color="#f4cd6c"/>
    </linearGradient>
    <clipPath id="clippath">
      <rect class="st3" x="12.3" y="10.9" width="8.1" height="7.7" rx="1" ry="1"/>
    </clipPath>
  </defs>
  <g id="Layer_2">
    <rect class="st9" x="-.1" y="-.2" width="64" height="64" rx="12.2" ry="12.2"/>
    <rect class="st1" x="9.1" y="7.7" width="35.6" height="47.8" rx="2.9" ry="2.9"/>
    <circle class="st0" cx="52.4" cy="11.1" r="3.6"/>
    <polyline class="st4" points="50.9 10.7 52.4 12.1 56.7 7.5"/>
    <line class="st2" x1="12.8" y1="21.5" x2="40.9" y2="21.5"/>
    <line class="st2" x1="12.8" y1="28.9" x2="24" y2="28.9"/>
    <line class="st2" x1="12.8" y1="32.1" x2="29.3" y2="32.1"/>
    <g>
      <path class="st7" d="M52.8,50.8c2.3,0,3.4.5,3.4,2.2s-1,2.1-3.4,2.1-3.2-.7-3.2-2.2,1-2.1,3.2-2.1h0s0,0,0,0ZM52.8,53.7c1.6,0,2.2,0,2.2-.6s-.6-.7-2.2-.7-2.1,0-2.1.7.6.6,2.1.6Z"/>
      <path class="st7" d="M53.4,48.5h2.6v1.6h-6.4v-2.2c0-1.2.6-1.9,1.8-1.9s1.3.4,1.5.8c.2-.5.6-.7,1.6-.7h1.6v1.4h-1.6c-.8,0-1,.2-1,.7v.4h0ZM52.3,48.6v-.3c0-.5-.2-.8-.8-.8s-.8.2-.8.7v.4s1.6,0,1.6,0Z"/>
      <path class="st7" d="M49.7,45.3v-1.8c0-1.7.9-2.4,3.1-2.4s3.3.7,3.3,2.4v1.8s-6.4,0-6.4,0ZM54.9,43.8v-.3c0-.7-.5-.9-2.2-.9s-1.9.2-1.9.9v.3h4.2,0Z"/>
      <path class="st7" d="M53.4,36.9v1.9h1.5v-2.2h1.2v3.7h-6.4v-3.5h1.2v2h1.3v-1.9h1.2Z"/>
      <path class="st7" d="M53.4,34.5h2.6v1.5h-6.4v-2.2c0-1.2.6-1.9,1.8-1.9s1.3.4,1.5.8c.2-.5.6-.7,1.6-.7h1.6v1.4h-1.6c-.8,0-1,.2-1,.7v.3s0,0,0,0h0ZM52.3,34.6v-.3c0-.5-.2-.8-.8-.8s-.8.2-.8.7v.4s1.6,0,1.6,0Z"/>
      <path class="st7" d="M49.8,27v-.9l6.2,1v.9l-6.2-1.1h0ZM49.8,28.6v-.9l6.2,1v.9l-6.2-1.1h0ZM51.3,29.7v-3.8h1.1v3.8h-1.1ZM53.3,29.9v-3.8h1.1v3.8h-1.1Z"/>
      <path class="st7" d="M54.2,25.2c-.8,0-1.3-.3-1.5-.7-.2.4-.6.6-1.3.6-1,0-1.7-.6-1.7-1.8s.6-1.8,1.7-1.8,1.2.3,1.3.6c.2-.4.6-.8,1.5-.8s1.9.6,1.9,2-.7,1.9-1.9,1.9h0ZM51.5,23.7c.6,0,.8,0,.8-.4s-.2-.5-.8-.5-.7.1-.7.5.2.4.7.4h0ZM54.2,22.9c-.7,0-.9.2-.9.5s.2.5.9.5.9-.1.9-.5-.3-.5-.9-.5Z"/>
      <path class="st7" d="M54.2,20.8c-.8,0-1.3-.3-1.5-.7-.2.4-.6.6-1.3.6-1,0-1.7-.6-1.7-1.8s.6-1.8,1.7-1.8,1.2.3,1.3.6c.2-.4.6-.8,1.5-.8s1.9.6,1.9,2-.7,1.9-1.9,1.9h0s0,0,0,0ZM51.5,19.3c.6,0,.8,0,.8-.4s-.2-.5-.8-.5-.7.1-.7.5.2.4.7.4h0ZM54.2,18.4c-.7,0-.9.2-.9.5s.2.5.9.5.9-.1.9-.5-.3-.5-.9-.5Z"/>
    </g>
    <g class="st10">
      <g>
        <polygon class="st5" points="12.3 18.6 12.3 10.9 20.4 10.9 12.3 18.6"/>
        <polyline class="st6" points="20.5 18.6 12.3 18.6 20.4 10.9 20.4 18.6"/>
      </g>
    </g>
  </g>
  <g id="Layer_11">
    <g>
      <path class="st8" d="M55.7,45.4v1.1c-.4.3-.9,0-1.4.2s-.7,0-.9,0c-.5,0-.5.7-.5,1.1h2.8v1.2h-6.5v-2.3c0-.2.3-.7.4-.9.6-.6,2.4-.7,2.8.2h0c.7-1.1,2.2-.4,3.2-.8v.2h.1ZM51.9,47.9v-.7s-.2-.4-.3-.4c-.3-.2-.9-.2-1.2,0s-.3.3-.3.5v.7h1.8Z"/>
      <path class="st8" d="M49.2,44.7v-2c0-.2.2-.7.3-.8,1.1-1.6,6.2-1.4,6.2.9v1.8h-6.5ZM50.2,43.5h4.4c.2-1.2-.9-1.4-1.8-1.5s-2.9,0-2.6,1.5Z"/>
      <path class="st8" d="M55.7,32.5v1.1h-1c-1,0-1.8-.3-1.7,1.2h2.8v1.1h-6.5v-2.2s0-.4.2-.5c.5-1.1,2.5-1.1,3.1,0,.2-.3.5-.5.9-.6s1.2,0,1.7,0h.7l-.2-.2h0ZM50.2,34.2v.8h1.8v-.9c-.2-.7-1.6-.6-1.7,0h0Z"/>
      <path class="st8" d="M52.2,49.8c1.1,0,3.3.2,3.5,1.6s-.8,2.2-2.1,2.4-4.4.2-4.6-1.7,1.7-2.2,3.1-2.3h0ZM51.6,51c-.4,0-1.2,0-1.4.5-.4.6.4.9.9,1,.8.2,2.9.2,3.5-.3s.2-.5,0-.8c-.3-.6-2.4-.6-3-.5h0Z"/>
      <path class="st8" d="M55.4,20.7c-.7.8-2.5.7-3.2-.2-1.2,1.3-3.5.3-3-1.6s2.3-1.6,3-.5c.8-1.2,3-1,3.5.4s0,1.4-.3,1.9ZM53.7,18.8c-.5,0-1.2.3-.9,1s1.9.5,2-.1-.5-.9-1.1-.8h0ZM50.7,18.9c-.8.1-.8,1.1,0,1.2s1,0,1-.5-.6-.7-1.1-.6h0Z"/>
      <path class="st8" d="M52.1,24.7c-.3.5-1,.6-1.5.6-2-.2-2-3.1,0-3.3s1.3,0,1.6.5h0c.2-.2.5-.4.8-.6,1.6-.6,3.3.5,2.8,2.3s-2.4,1.5-3.3.7,0-.3-.3-.2h0ZM54.7,24.1c.2-.2.2-.4.2-.6,0-.6-1.8-.7-2,0-.4,1,1.3,1.2,1.8.7h0ZM50.7,23.1c-.4,0-.7.3-.6.7,0,.6,1.9.6,1.6-.3s-.7-.5-1-.4Z"/>
      <path class="st8" d="M51.8,26v.8l1.2.2v-.8c.2-.2.6,0,.9,0v.9l1.8.3v.8h0l-1.7-.3v.7l1.8.3v.8h0c-.5,0-1.2-.3-1.7-.3v.7h-.9v-.9l-1.2-.2v.8h-.8v-1l-1.7-.4v-.8l1.7.3v-.7l-1.7-.3v-.9l1.7.3v-.6h.8v.3h-.2ZM51.8,27.6v.7l1.2.2v-.7l-1.2-.2Z"/>
      <polygon class="st8" points="55.7 36.9 55.7 40.1 49.2 40.1 49.2 37 50.2 37 50.2 38.9 51.8 38.9 51.8 37.1 52.8 37.1 52.8 38.9 54.7 38.9 54.7 36.9 55.7 36.9"/>
      <path d="M12.5,38h28.7c.5.2.4.8,0,.9H12.7c-.6,0-.8-.7-.2-.9Z"/>
      <path d="M13.4,51.4h26.6c.4,0,.4.7,0,.7H13.6c-.4,0-.5-.5-.2-.7Z"/>
      <rect x="22.5" y="41.4" width="2" height="7.5"/>
      <polygon points="33.8 41.4 33.8 49 31.8 49 31.8 41.4 33.8 41.4"/>
      <path d="M28.1,41.4v7.5c-.5.2-1.2,0-1.7,0v-7.5h1.7Z"/>
      <rect x="16.9" y="41.4" width="1.7" height="7.5"/>
      <rect x="36.7" y="41.4" width="1.3" height="7.5"/>
      <polygon points="36 41.4 35.9 49 35 49 35 41.4 36 41.4"/>
      <rect x="19.9" y="41.4" width=".6" height="7.5"/>
      <rect x="29" y="41.4" width=".6" height="7.5"/>
      <rect x="38.6" y="41.4" width=".6" height="7.5"/>
      <rect x="15.6" y="41.4" width=".6" height="7.5"/>
      <path d="M30.9,41.4v7.5h-.6v-7.5h.6Z"/>
      <path d="M14.9,41.4v7.5h-.6v-7.5h.6Z"/>
      <path d="M21.8,41.4v7.5h-.6c.2-2.5-.1-5,0-7.5h.6Z"/>
      <path d="M25.7,49h-.6v-7.5h.6c-.1,0,0,7.4,0,7.4h0Z"/>
    </g>
  </g>
</svg>
